<svg xmlns="http://www.w3.org/2000/svg" xmlns:xlink="http://www.w3.org/1999/xlink" width="1920" zoomAndPan="magnify" viewBox="0 0 1440 809.999993" height="1080" preserveAspectRatio="xMidYMid meet" version="1.2"><defs><linearGradient x1="0" gradientTransform="matrix(0.75,0,0,0.75,0.00000622222,0.00002)" y1="540" x2="1919.99992" gradientUnits="userSpaceOnUse" y2="540" id="8ad114dec6"><stop style="stop-color:#06b6d4;stop-opacity:1;" offset="0"/><stop style="stop-color:#06b6d4;stop-opacity:1;" offset="0.0078125"/><stop style="stop-color:#07b6d5;stop-opacity:1;" offset="0.015625"/><stop style="stop-color:#08b7d5;stop-opacity:1;" offset="0.0234375"/><stop style="stop-color:#09b7d5;stop-opacity:1;" offset="0.03125"/><stop style="stop-color:#0ab7d6;stop-opacity:1;" offset="0.0390625"/><stop style="stop-color:#0bb8d6;stop-opacity:1;" offset="0.046875"/><stop style="stop-color:#0bb8d6;stop-opacity:1;" offset="0.0546875"/><stop style="stop-color:#0cb8d7;stop-opacity:1;" offset="0.0625"/><stop style="stop-color:#0db9d7;stop-opacity:1;" offset="0.0703125"/><stop style="stop-color:#0eb9d7;stop-opacity:1;" offset="0.078125"/><stop style="stop-color:#0fb9d8;stop-opacity:1;" offset="0.0859375"/><stop style="stop-color:#10b9d8;stop-opacity:1;" offset="0.09375"/><stop style="stop-color:#10bad8;stop-opacity:1;" offset="0.101562"/><stop style="stop-color:#11bad9;stop-opacity:1;" offset="0.109375"/><stop style="stop-color:#12bad9;stop-opacity:1;" offset="0.117188"/><stop style="stop-color:#13bbd9;stop-opacity:1;" offset="0.125"/><stop style="stop-color:#14bbda;stop-opacity:1;" offset="0.132812"/><stop style="stop-color:#15bbda;stop-opacity:1;" offset="0.140625"/><stop style="stop-color:#15bcda;stop-opacity:1;" offset="0.148438"/><stop style="stop-color:#16bcdb;stop-opacity:1;" offset="0.15625"/><stop style="stop-color:#17bcdb;stop-opacity:1;" offset="0.164062"/><stop style="stop-color:#18bddb;stop-opacity:1;" offset="0.171875"/><stop style="stop-color:#19bddc;stop-opacity:1;" offset="0.179688"/><stop style="stop-color:#1abddc;stop-opacity:1;" offset="0.1875"/><stop style="stop-color:#1abddc;stop-opacity:1;" offset="0.195312"/><stop style="stop-color:#1bbedd;stop-opacity:1;" offset="0.203125"/><stop style="stop-color:#1cbedd;stop-opacity:1;" offset="0.210938"/><stop style="stop-color:#1dbedd;stop-opacity:1;" offset="0.21875"/><stop style="stop-color:#1ebfde;stop-opacity:1;" offset="0.226562"/><stop style="stop-color:#1fbfde;stop-opacity:1;" offset="0.234375"/><stop style="stop-color:#1fbfde;stop-opacity:1;" offset="0.242188"/><stop style="stop-color:#20c0df;stop-opacity:1;" offset="0.25"/><stop style="stop-color:#21c0df;stop-opacity:1;" offset="0.257812"/><stop style="stop-color:#22c0df;stop-opacity:1;" offset="0.265625"/><stop style="stop-color:#23c1e0;stop-opacity:1;" offset="0.273438"/><stop style="stop-color:#24c1e0;stop-opacity:1;" offset="0.28125"/><stop style="stop-color:#25c1e0;stop-opacity:1;" offset="0.289062"/><stop style="stop-color:#25c1e1;stop-opacity:1;" offset="0.296875"/><stop style="stop-color:#26c2e1;stop-opacity:1;" offset="0.304688"/><stop style="stop-color:#27c2e1;stop-opacity:1;" offset="0.3125"/><stop style="stop-color:#28c2e2;stop-opacity:1;" offset="0.320312"/><stop style="stop-color:#29c3e2;stop-opacity:1;" offset="0.328125"/><stop style="stop-color:#2ac3e2;stop-opacity:1;" offset="0.335938"/><stop style="stop-color:#2ac3e3;stop-opacity:1;" offset="0.34375"/><stop style="stop-color:#2bc4e3;stop-opacity:1;" offset="0.351562"/><stop style="stop-color:#2cc4e3;stop-opacity:1;" offset="0.359375"/><stop style="stop-color:#2dc4e4;stop-opacity:1;" offset="0.367188"/><stop style="stop-color:#2ec4e4;stop-opacity:1;" offset="0.375"/><stop style="stop-color:#2fc5e4;stop-opacity:1;" offset="0.382812"/><stop style="stop-color:#2fc5e5;stop-opacity:1;" offset="0.390625"/><stop style="stop-color:#30c5e5;stop-opacity:1;" offset="0.398438"/><stop style="stop-color:#31c6e5;stop-opacity:1;" offset="0.40625"/><stop style="stop-color:#32c6e6;stop-opacity:1;" offset="0.414062"/><stop style="stop-color:#33c6e6;stop-opacity:1;" offset="0.421875"/><stop style="stop-color:#34c7e6;stop-opacity:1;" offset="0.429688"/><stop style="stop-color:#34c7e7;stop-opacity:1;" offset="0.4375"/><stop style="stop-color:#35c7e7;stop-opacity:1;" offset="0.445312"/><stop style="stop-color:#36c8e7;stop-opacity:1;" offset="0.453125"/><stop style="stop-color:#37c8e8;stop-opacity:1;" offset="0.460938"/><stop style="stop-color:#38c8e8;stop-opacity:1;" offset="0.46875"/><stop style="stop-color:#39c8e8;stop-opacity:1;" offset="0.476562"/><stop style="stop-color:#39c9e9;stop-opacity:1;" offset="0.484375"/><stop style="stop-color:#3ac9e9;stop-opacity:1;" offset="0.492188"/><stop style="stop-color:#3bc9e9;stop-opacity:1;" offset="0.5"/><stop style="stop-color:#3ccaea;stop-opacity:1;" offset="0.507812"/><stop style="stop-color:#3dcaea;stop-opacity:1;" offset="0.515625"/><stop style="stop-color:#3ecaea;stop-opacity:1;" offset="0.523438"/><stop style="stop-color:#3ecbeb;stop-opacity:1;" offset="0.53125"/><stop style="stop-color:#3fcbeb;stop-opacity:1;" offset="0.539062"/><stop style="stop-color:#40cbeb;stop-opacity:1;" offset="0.546875"/><stop style="stop-color:#41cbec;stop-opacity:1;" offset="0.554688"/><stop style="stop-color:#42ccec;stop-opacity:1;" offset="0.5625"/><stop style="stop-color:#43ccec;stop-opacity:1;" offset="0.570312"/><stop style="stop-color:#43cced;stop-opacity:1;" offset="0.578125"/><stop style="stop-color:#44cded;stop-opacity:1;" offset="0.585938"/><stop style="stop-color:#45cded;stop-opacity:1;" offset="0.59375"/><stop style="stop-color:#46cdee;stop-opacity:1;" offset="0.601562"/><stop style="stop-color:#47ceee;stop-opacity:1;" offset="0.609375"/><stop style="stop-color:#48ceee;stop-opacity:1;" offset="0.617188"/><stop style="stop-color:#48ceef;stop-opacity:1;" offset="0.625"/><stop style="stop-color:#49cfef;stop-opacity:1;" offset="0.632812"/><stop style="stop-color:#4acfef;stop-opacity:1;" offset="0.640625"/><stop style="stop-color:#4bcff0;stop-opacity:1;" offset="0.648438"/><stop style="stop-color:#4ccff0;stop-opacity:1;" offset="0.65625"/><stop style="stop-color:#4dd0f0;stop-opacity:1;" offset="0.664062"/><stop style="stop-color:#4dd0f1;stop-opacity:1;" offset="0.671875"/><stop style="stop-color:#4ed0f1;stop-opacity:1;" offset="0.679688"/><stop style="stop-color:#4fd1f1;stop-opacity:1;" offset="0.6875"/><stop style="stop-color:#50d1f2;stop-opacity:1;" offset="0.695312"/><stop style="stop-color:#51d1f2;stop-opacity:1;" offset="0.703125"/><stop style="stop-color:#52d2f2;stop-opacity:1;" offset="0.710938"/><stop style="stop-color:#52d2f3;stop-opacity:1;" offset="0.71875"/><stop style="stop-color:#53d2f3;stop-opacity:1;" offset="0.726562"/><stop style="stop-color:#54d2f3;stop-opacity:1;" offset="0.734375"/><stop style="stop-color:#55d3f4;stop-opacity:1;" offset="0.742188"/><stop style="stop-color:#56d3f4;stop-opacity:1;" offset="0.75"/><stop style="stop-color:#57d3f4;stop-opacity:1;" offset="0.757812"/><stop style="stop-color:#57d4f5;stop-opacity:1;" offset="0.765625"/><stop style="stop-color:#58d4f5;stop-opacity:1;" offset="0.773438"/><stop style="stop-color:#59d4f5;stop-opacity:1;" offset="0.78125"/><stop style="stop-color:#5ad5f6;stop-opacity:1;" offset="0.789062"/><stop style="stop-color:#5bd5f6;stop-opacity:1;" offset="0.796875"/><stop style="stop-color:#5cd5f6;stop-opacity:1;" offset="0.804688"/><stop style="stop-color:#5dd6f7;stop-opacity:1;" offset="0.8125"/><stop style="stop-color:#5dd6f7;stop-opacity:1;" offset="0.820312"/><stop style="stop-color:#5ed6f7;stop-opacity:1;" offset="0.828125"/><stop style="stop-color:#5fd6f8;stop-opacity:1;" offset="0.835938"/><stop style="stop-color:#60d7f8;stop-opacity:1;" offset="0.84375"/><stop style="stop-color:#61d7f8;stop-opacity:1;" offset="0.851562"/><stop style="stop-color:#62d7f9;stop-opacity:1;" offset="0.859375"/><stop style="stop-color:#62d8f9;stop-opacity:1;" offset="0.867188"/><stop style="stop-color:#63d8f9;stop-opacity:1;" offset="0.875"/><stop style="stop-color:#64d8fa;stop-opacity:1;" offset="0.882812"/><stop style="stop-color:#65d9fa;stop-opacity:1;" offset="0.890625"/><stop style="stop-color:#66d9fa;stop-opacity:1;" offset="0.898438"/><stop style="stop-color:#67d9fb;stop-opacity:1;" offset="0.90625"/><stop style="stop-color:#67dafb;stop-opacity:1;" offset="0.914062"/><stop style="stop-color:#68dafb;stop-opacity:1;" offset="0.921875"/><stop style="stop-color:#69dafc;stop-opacity:1;" offset="0.929688"/><stop style="stop-color:#6adafc;stop-opacity:1;" offset="0.9375"/><stop style="stop-color:#6bdbfc;stop-opacity:1;" offset="0.945312"/><stop style="stop-color:#6cdbfd;stop-opacity:1;" offset="0.953125"/><stop style="stop-color:#6cdbfd;stop-opacity:1;" offset="0.960938"/><stop style="stop-color:#6ddcfd;stop-opacity:1;" offset="0.96875"/><stop style="stop-color:#6edcfe;stop-opacity:1;" offset="0.976562"/><stop style="stop-color:#6fdcfe;stop-opacity:1;" offset="0.984375"/><stop style="stop-color:#70ddfe;stop-opacity:1;" offset="0.992188"/><stop style="stop-color:#71ddff;stop-opacity:1;" offset="1"/></linearGradient><filter x="0%" y="0%" width="100%" filterUnits="objectBoundingBox" id="42c033ec5f" height="100%"><feColorMatrix values="0 0 0 0 1 0 0 0 0 1 0 0 0 0 1 0 0 0 1 0" type="matrix" in="SourceGraphic"/></filter><clipPath id="9873d01414"><path d="M 1.132812 30 L 159 30 L 159 167 L 1.132812 167 Z M 1.132812 30 "/></clipPath><clipPath id="cd47e720d3"><path d="M 184 0.824219 L 343 0.824219 L 343 138 L 184 138 Z M 184 0.824219 "/></clipPath><clipPath id="961015cf6a"><path d="M 258 201.566406 L 415.625 201.566406 L 415.625 324.824219 L 258 324.824219 Z M 258 201.566406 "/></clipPath><clipPath id="28e662da76"><path d="M 319 111.265625 L 436.882812 111.265625 L 436.882812 247.515625 L 319 247.515625 Z M 319 111.265625 "/></clipPath><clipPath id="af2fca326b"><path d="M 147.519531 237 L 305.347656 237 L 305.347656 324.824219 L 147.519531 324.824219 Z M 147.519531 237 "/></clipPath><clipPath id="d363457ebf"><path d="M 97.175781 305.050781 L 233.027344 305.050781 L 233.027344 324.824219 L 97.175781 324.824219 Z M 97.175781 305.050781 "/></clipPath><clipPath id="71f7ac99fa"><path d="M 385 179.191406 L 436.882812 179.191406 L 436.882812 315.839844 L 385 315.839844 Z M 385 179.191406 "/></clipPath><clipPath id="cb8e25e90a"><path d="M 97.175781 224.738281 L 201 224.738281 L 201 324.824219 L 97.175781 324.824219 Z M 97.175781 224.738281 "/></clipPath><clipPath id="d2c72cd6b6"><path d="M 319 270 L 436.882812 270 L 436.882812 324.824219 L 319 324.824219 Z M 319 270 "/></clipPath><clipPath id="548f2b1ea1"><path d="M 290.164062 98.476562 L 436.882812 98.476562 L 436.882812 162.808594 L 290.164062 162.808594 Z M 290.164062 98.476562 "/></clipPath><clipPath id="243d47dacd"><rect x="0" width="437" y="0" height="325"/></clipPath><clipPath id="42ae0f4adb"><path d="M 278 158 L 435.855469 158 L 435.855469 295 L 278 295 Z M 278 158 "/></clipPath><clipPath id="234400d912"><path d="M 94 187 L 253 187 L 253 324.164062 L 94 324.164062 Z M 94 187 "/></clipPath><clipPath id="eb79e31185"><path d="M 21.363281 0.164062 L 179 0.164062 L 179 123.425781 L 21.363281 123.425781 Z M 21.363281 0.164062 "/></clipPath><clipPath id="94549e2cc0"><path d="M 0.105469 77.476562 L 118 77.476562 L 118 213.726562 L 0.105469 213.726562 Z M 0.105469 77.476562 "/></clipPath><clipPath id="0521c99faa"><path d="M 131.640625 0.164062 L 289.46875 0.164062 L 289.46875 88 L 131.640625 88 Z M 131.640625 0.164062 "/></clipPath><clipPath id="0fe4b45aaa"><path d="M 203.964844 0.164062 L 339.8125 0.164062 L 339.8125 19.9375 L 203.964844 19.9375 Z M 203.964844 0.164062 "/></clipPath><clipPath id="f3017b10a4"><path d="M 0.105469 9.148438 L 52 9.148438 L 52 145.800781 L 0.105469 145.800781 Z M 0.105469 9.148438 "/></clipPath><clipPath id="9920e99a49"><path d="M 236 0.164062 L 339.8125 0.164062 L 339.8125 100.25 L 236 100.25 Z M 236 0.164062 "/></clipPath><clipPath id="5df7e5b530"><path d="M 0.105469 0.164062 L 118 0.164062 L 118 55 L 0.105469 55 Z M 0.105469 0.164062 "/></clipPath><clipPath id="ee82f63059"><path d="M 0.105469 162.183594 L 146.824219 162.183594 L 146.824219 226.511719 L 0.105469 226.511719 Z M 0.105469 162.183594 "/></clipPath><clipPath id="d9507b467c"><rect x="0" width="437" y="0" height="325"/></clipPath></defs><g id="9200a67ec7"><rect x="0" width="1440" y="0" height="809.999993" style="fill:#ffffff;fill-opacity:1;stroke:none;"/><rect x="0" width="1440" y="0" height="809.999993" style="fill:url(#8ad114dec6);stroke:none;"/><g mask="url(#f5e68d427b)" transform="matrix(1,0,0,1,1003,485)"><g clip-path="url(#243d47dacd)"><path style=" stroke:none;fill-rule:nonzero;fill:#ffffff;fill-opacity:1;" d="M 172.074219 77.449219 L 93.410156 77.449219 L 54.078125 145.570312 L 93.410156 213.695312 L 172.074219 213.695312 L 211.40625 145.570312 Z M 171.613281 78.246094 L 210.480469 145.570312 L 171.613281 212.898438 L 93.871094 212.898438 L 55 145.570312 L 93.871094 78.246094 L 171.613281 78.246094 "/><g clip-rule="nonzero" clip-path="url(#9873d01414)"><path style=" stroke:none;fill-rule:nonzero;fill:#ffffff;fill-opacity:1;" d="M 119.144531 30.355469 L 40.480469 30.355469 L 1.148438 98.480469 L 40.480469 166.601562 L 119.144531 166.601562 L 158.476562 98.480469 Z M 118.683594 31.152344 L 157.550781 98.480469 L 118.679688 165.804688 L 40.941406 165.804688 L 2.070312 98.480469 L 40.941406 31.152344 L 118.683594 31.152344 "/></g><g clip-rule="nonzero" clip-path="url(#cd47e720d3)"><path style=" stroke:none;fill-rule:nonzero;fill:#ffffff;fill-opacity:1;" d="M 302.941406 0.828125 L 224.277344 0.828125 L 184.945312 68.949219 L 224.277344 137.078125 L 302.941406 137.078125 L 342.273438 68.949219 Z M 302.480469 1.625 L 341.351562 68.949219 L 302.480469 136.277344 L 224.738281 136.277344 L 185.871094 68.949219 L 224.738281 1.625 L 302.480469 1.625 "/></g><path style=" stroke:none;fill-rule:nonzero;fill:#ffffff;fill-opacity:1;" d="M 240.265625 145.640625 L 161.601562 145.640625 L 122.269531 213.765625 L 161.601562 281.886719 L 240.265625 281.886719 L 279.597656 213.765625 Z M 239.804688 146.4375 L 278.675781 213.765625 L 239.804688 281.089844 L 162.0625 281.089844 L 123.191406 213.765625 L 162.0625 146.4375 L 239.804688 146.4375 "/><path style=" stroke:none;fill-rule:nonzero;fill:#ffffff;fill-opacity:1;" d="M 348.710938 94.367188 L 270.050781 94.367188 L 230.71875 162.492188 L 270.050781 230.617188 L 348.710938 230.617188 L 388.042969 162.492188 Z M 348.25 95.167969 L 387.121094 162.492188 L 348.25 229.816406 L 270.507812 229.816406 L 231.640625 162.492188 L 270.507812 95.167969 L 348.25 95.167969 "/><g clip-rule="nonzero" clip-path="url(#961015cf6a)"><path style=" stroke:none;fill-rule:nonzero;fill:#ffffff;fill-opacity:1;" d="M 376.148438 201.941406 L 297.484375 201.941406 L 258.152344 270.066406 L 297.484375 338.1875 L 376.148438 338.1875 L 415.480469 270.066406 Z M 375.6875 202.738281 L 414.554688 270.066406 L 375.6875 337.390625 L 297.945312 337.390625 L 259.078125 270.066406 L 297.945312 202.738281 L 375.6875 202.738281 "/></g><g clip-rule="nonzero" clip-path="url(#28e662da76)"><path style=" stroke:none;fill-rule:nonzero;fill:#ffffff;fill-opacity:1;" d="M 437.210938 111.265625 L 358.546875 111.265625 L 319.21875 179.386719 L 358.546875 247.511719 L 437.210938 247.511719 L 476.542969 179.386719 Z M 436.75 112.0625 L 475.621094 179.386719 L 436.75 246.710938 L 359.011719 246.710938 L 320.140625 179.386719 L 359.011719 112.0625 L 436.75 112.0625 "/></g><g clip-rule="nonzero" clip-path="url(#af2fca326b)"><path style=" stroke:none;fill-rule:nonzero;fill:#ffffff;fill-opacity:1;" d="M 265.816406 237.035156 L 187.152344 237.035156 L 147.824219 305.160156 L 187.152344 373.285156 L 265.816406 373.285156 L 305.148438 305.160156 Z M 265.355469 237.835938 L 304.226562 305.160156 L 265.355469 372.488281 L 187.617188 372.488281 L 148.746094 305.160156 L 187.617188 237.835938 L 265.355469 237.835938 "/></g><g clip-rule="nonzero" clip-path="url(#d363457ebf)"><path style=" stroke:none;fill-rule:nonzero;fill:#ffffff;fill-opacity:1;" d="M 193.679688 305.160156 L 115.015625 305.160156 L 75.683594 373.285156 L 115.015625 441.410156 L 193.679688 441.410156 L 233.011719 373.285156 Z M 193.214844 305.960938 L 232.085938 373.285156 L 193.214844 440.613281 L 115.476562 440.613281 L 76.605469 373.285156 L 115.476562 305.960938 L 193.214844 305.960938 "/></g><g clip-rule="nonzero" clip-path="url(#71f7ac99fa)"><path style=" stroke:none;fill-rule:nonzero;fill:#ffffff;fill-opacity:1;" d="M 503.179688 179.386719 L 424.515625 179.386719 L 385.183594 247.511719 L 424.515625 315.636719 L 503.179688 315.636719 L 542.507812 247.511719 Z M 502.714844 180.1875 L 541.582031 247.511719 L 502.714844 314.835938 L 424.976562 314.835938 L 386.105469 247.511719 L 424.976562 180.1875 L 502.714844 180.1875 "/></g><g clip-rule="nonzero" clip-path="url(#cb8e25e90a)"><path style=" stroke:none;fill-rule:nonzero;fill:#ffffff;fill-opacity:1;" d="M 161.601562 224.941406 L 82.9375 224.941406 L 43.605469 293.066406 L 82.9375 361.191406 L 161.601562 361.191406 L 200.933594 293.066406 Z M 161.140625 225.742188 L 200.011719 293.066406 L 161.140625 360.390625 L 83.402344 360.390625 L 44.53125 293.066406 L 83.402344 225.742188 L 161.140625 225.742188 "/></g><g clip-rule="nonzero" clip-path="url(#d2c72cd6b6)"><path style=" stroke:none;fill-rule:nonzero;fill:#ffffff;fill-opacity:1;" d="M 437.210938 270.066406 L 358.546875 270.066406 L 319.21875 338.1875 L 358.546875 406.3125 L 437.210938 406.3125 L 476.542969 338.1875 Z M 436.75 270.863281 L 475.621094 338.1875 L 436.75 405.515625 L 359.011719 405.515625 L 320.140625 338.1875 L 359.011719 270.863281 L 436.75 270.863281 "/></g><g clip-rule="nonzero" clip-path="url(#548f2b1ea1)"><path style=" stroke:none;fill-rule:nonzero;fill:#ffffff;fill-opacity:1;" d="M 408.203125 26.246094 L 329.539062 26.246094 L 290.207031 94.367188 L 329.539062 162.492188 L 408.203125 162.492188 L 447.535156 94.367188 Z M 407.742188 27.042969 L 446.613281 94.367188 L 407.742188 161.695312 L 330.003906 161.695312 L 291.132812 94.367188 L 330.003906 27.042969 L 407.742188 27.042969 "/></g></g><mask id="f5e68d427b"><g filter="url(#42c033ec5f)"><rect x="0" width="1440" y="0" height="809.999993" style="fill:#000000;fill-opacity:0.3;stroke:none;"/></g></mask></g><g mask="url(#61f42d6b06)" transform="matrix(1,0,0,1,0,0.000000000000039746)"><g clip-path="url(#d9507b467c)"><path style=" stroke:none;fill-rule:nonzero;fill:#ffffff;fill-opacity:1;" d="M 264.917969 247.542969 L 343.578125 247.542969 L 382.910156 179.417969 L 343.578125 111.292969 L 264.917969 111.292969 L 225.585938 179.417969 Z M 265.378906 246.742188 L 226.507812 179.417969 L 265.378906 112.089844 L 343.117188 112.089844 L 381.988281 179.417969 L 343.117188 246.742188 L 265.378906 246.742188 "/><g clip-rule="nonzero" clip-path="url(#42ae0f4adb)"><path style=" stroke:none;fill-rule:nonzero;fill:#ffffff;fill-opacity:1;" d="M 317.847656 294.636719 L 396.507812 294.636719 L 435.84375 226.507812 L 396.507812 158.386719 L 317.847656 158.386719 L 278.515625 226.507812 Z M 318.308594 293.835938 L 279.4375 226.507812 L 318.308594 159.183594 L 396.050781 159.183594 L 434.917969 226.507812 L 396.050781 293.835938 L 318.308594 293.835938 "/></g><g clip-rule="nonzero" clip-path="url(#234400d912)"><path style=" stroke:none;fill-rule:nonzero;fill:#ffffff;fill-opacity:1;" d="M 134.050781 324.160156 L 212.710938 324.160156 L 252.042969 256.039062 L 212.710938 187.914062 L 134.050781 187.914062 L 94.71875 256.039062 Z M 134.507812 323.363281 L 95.640625 256.039062 L 134.511719 188.710938 L 212.25 188.710938 L 251.121094 256.039062 L 212.25 323.363281 L 134.507812 323.363281 "/></g><path style=" stroke:none;fill-rule:nonzero;fill:#ffffff;fill-opacity:1;" d="M 196.726562 179.351562 L 275.386719 179.351562 L 314.71875 111.226562 L 275.386719 43.101562 L 196.726562 43.101562 L 157.394531 111.226562 Z M 197.1875 178.550781 L 158.316406 111.226562 L 197.1875 43.902344 L 274.925781 43.902344 L 313.796875 111.226562 L 274.925781 178.550781 L 197.1875 178.550781 "/><path style=" stroke:none;fill-rule:nonzero;fill:#ffffff;fill-opacity:1;" d="M 88.277344 230.621094 L 166.941406 230.621094 L 206.273438 162.496094 L 166.941406 94.371094 L 88.277344 94.371094 L 48.949219 162.496094 Z M 88.738281 229.820312 L 49.871094 162.496094 L 88.738281 95.171875 L 166.480469 95.171875 L 205.351562 162.496094 L 166.480469 229.820312 L 88.738281 229.820312 "/><g clip-rule="nonzero" clip-path="url(#eb79e31185)"><path style=" stroke:none;fill-rule:nonzero;fill:#ffffff;fill-opacity:1;" d="M 60.84375 123.050781 L 139.503906 123.050781 L 178.835938 54.925781 L 139.503906 -13.199219 L 60.84375 -13.199219 L 21.511719 54.925781 Z M 61.300781 122.25 L 22.433594 54.925781 L 61.304688 -12.398438 L 139.042969 -12.398438 L 177.914062 54.925781 L 139.042969 122.25 L 61.300781 122.25 "/></g><g clip-rule="nonzero" clip-path="url(#94549e2cc0)"><path style=" stroke:none;fill-rule:nonzero;fill:#ffffff;fill-opacity:1;" d="M -0.222656 213.726562 L 78.441406 213.726562 L 117.773438 145.601562 L 78.441406 77.476562 L -0.222656 77.476562 L -39.554688 145.601562 Z M 0.238281 212.925781 L -38.628906 145.601562 L 0.238281 78.277344 L 77.980469 78.277344 L 116.851562 145.601562 L 77.980469 212.925781 L 0.238281 212.925781 "/></g><g clip-rule="nonzero" clip-path="url(#0521c99faa)"><path style=" stroke:none;fill-rule:nonzero;fill:#ffffff;fill-opacity:1;" d="M 171.171875 87.953125 L 249.835938 87.953125 L 289.167969 19.828125 L 249.835938 -48.296875 L 171.171875 -48.296875 L 131.839844 19.828125 Z M 171.632812 87.152344 L 132.765625 19.828125 L 171.632812 -47.496094 L 249.375 -47.496094 L 288.246094 19.828125 L 249.375 87.152344 L 171.632812 87.152344 "/></g><g clip-rule="nonzero" clip-path="url(#0fe4b45aaa)"><path style=" stroke:none;fill-rule:nonzero;fill:#ffffff;fill-opacity:1;" d="M 243.3125 19.828125 L 321.976562 19.828125 L 361.308594 -48.296875 L 321.976562 -116.421875 L 243.3125 -116.421875 L 203.980469 -48.296875 Z M 243.773438 19.027344 L 204.902344 -48.296875 L 243.773438 -115.621094 L 321.511719 -115.621094 L 360.382812 -48.296875 L 321.511719 19.027344 L 243.773438 19.027344 "/></g><g clip-rule="nonzero" clip-path="url(#f3017b10a4)"><path style=" stroke:none;fill-rule:nonzero;fill:#ffffff;fill-opacity:1;" d="M -66.1875 145.601562 L 12.476562 145.601562 L 51.808594 77.476562 L 12.476562 9.351562 L -66.1875 9.351562 L -105.515625 77.476562 Z M -65.726562 144.800781 L -104.59375 77.476562 L -65.726562 10.152344 L 12.015625 10.152344 L 50.886719 77.476562 L 12.015625 144.800781 L -65.726562 144.800781 "/></g><g clip-rule="nonzero" clip-path="url(#9920e99a49)"><path style=" stroke:none;fill-rule:nonzero;fill:#ffffff;fill-opacity:1;" d="M 275.386719 100.046875 L 354.050781 100.046875 L 393.382812 31.921875 L 354.050781 -36.203125 L 275.390625 -36.203125 L 236.054688 31.921875 Z M 275.851562 99.246094 L 236.980469 31.921875 L 275.851562 -35.402344 L 353.589844 -35.402344 L 392.460938 31.921875 L 353.589844 99.246094 L 275.851562 99.246094 "/></g><g clip-rule="nonzero" clip-path="url(#5df7e5b530)"><path style=" stroke:none;fill-rule:nonzero;fill:#ffffff;fill-opacity:1;" d="M -0.222656 54.925781 L 78.441406 54.925781 L 117.773438 -13.199219 L 78.441406 -81.324219 L -0.222656 -81.324219 L -39.554688 -13.199219 Z M 0.238281 54.125 L -38.628906 -13.199219 L 0.238281 -80.523438 L 77.980469 -80.523438 L 116.851562 -13.199219 L 77.980469 54.125 L 0.238281 54.125 "/></g><g clip-rule="nonzero" clip-path="url(#ee82f63059)"><path style=" stroke:none;fill-rule:nonzero;fill:#ffffff;fill-opacity:1;" d="M 28.785156 298.746094 L 107.449219 298.746094 L 146.78125 230.621094 L 107.449219 162.496094 L 28.785156 162.496094 L -10.546875 230.621094 Z M 29.246094 297.945312 L -9.621094 230.621094 L 29.25 163.292969 L 106.988281 163.292969 L 145.859375 230.621094 L 106.988281 297.945312 L 29.246094 297.945312 "/></g></g><mask id="61f42d6b06"><g filter="url(#42c033ec5f)"><rect x="0" width="1440" y="0" height="809.999993" style="fill:#000000;fill-opacity:0.3;stroke:none;"/></g></mask></g></g></svg>