<svg xmlns="http://www.w3.org/2000/svg" xmlns:xlink="http://www.w3.org/1999/xlink" width="500" zoomAndPan="magnify" viewBox="0 0 375 374.999991" height="500" preserveAspectRatio="xMidYMid meet" version="1.2"><defs><clipPath id="f2c34efe61"><path d="M 30 0.558594 L 134 0.558594 L 134 120 L 30 120 Z M 30 0.558594 "/></clipPath><clipPath id="74e90073f8"><rect x="0" width="187" y="0" height="233"/></clipPath></defs><g id="1ab0e30a34"><g transform="matrix(1,0,0,1,98,94)"><g clip-path="url(#74e90073f8)"><g style="fill:#000e4d;fill-opacity:1;"><g transform="translate(1.20619, 202.290351)"><path style="stroke:none" d="M 21.0625 -26.203125 L 21.0625 -20.921875 L 13.765625 -20.921875 L 13.765625 0 L 8.078125 0 L 8.078125 -20.921875 L 0.828125 -20.921875 L 0.828125 -26.203125 Z M 21.0625 -26.203125 "/></g></g><g style="fill:#000e4d;fill-opacity:1;"><g transform="translate(30.539498, 202.290351)"><path style="stroke:none" d="M 20.390625 0 L 18.5625 -4.984375 L 8.125 -4.984375 L 6.328125 0 L 0.34375 0 L 10.59375 -26.203125 L 15.9375 -26.203125 L 26.53125 0 Z M 13.328125 -19.265625 L 9.921875 -9.921875 L 16.765625 -9.921875 Z M 13.328125 -19.265625 "/></g></g><g style="fill:#000e4d;fill-opacity:1;"><g transform="translate(64.886034, 202.290351)"><path style="stroke:none" d="M 8.6875 -5.28125 L 18.71875 -5.28125 L 18.71875 0 L 3 0 L 3 -26.203125 L 8.6875 -26.203125 Z M 8.6875 -5.28125 "/></g></g><g style="fill:#000e4d;fill-opacity:1;"><g transform="translate(91.899796, 202.290351)"><path style="stroke:none" d="M 8.6875 -5.28125 L 19.125 -5.28125 L 19.125 0 L 3 0 L 3 -26.203125 L 18.71875 -26.203125 L 18.71875 -20.953125 L 8.6875 -20.953125 L 8.6875 -15.796875 L 17.734375 -15.796875 L 17.734375 -10.671875 L 8.6875 -10.671875 Z M 8.6875 -5.28125 "/></g></g><g style="fill:#000e4d;fill-opacity:1;"><g transform="translate(120.297807, 202.290351)"><path style="stroke:none" d="M 19.609375 -26.203125 L 25.140625 -26.203125 L 25.140625 0 L 20.4375 0 L 8.5625 -16.359375 L 8.5625 0 L 3 0 L 3 -26.203125 L 8.125 -26.203125 L 19.609375 -10.21875 Z M 19.609375 -26.203125 "/></g></g><g style="fill:#000e4d;fill-opacity:1;"><g transform="translate(155.916353, 202.290351)"><path style="stroke:none" d="M 21.0625 -26.203125 L 21.0625 -20.921875 L 13.765625 -20.921875 L 13.765625 0 L 8.078125 0 L 8.078125 -20.921875 L 0.828125 -20.921875 L 0.828125 -26.203125 Z M 21.0625 -26.203125 "/></g></g><g style="fill:#000e4d;fill-opacity:1;"><g transform="translate(53.608166, 229.991336)"><path style="stroke:none" d="M 6.71875 -7.53125 L 3.125 -7.53125 L 3.125 -5.46875 L 6.359375 -5.46875 L 6.359375 -3.609375 L 3.125 -3.609375 L 3.125 0 L 1.078125 0 L 1.078125 -9.4375 L 6.71875 -9.4375 Z M 6.71875 -7.53125 "/></g></g><g style="fill:#000e4d;fill-opacity:1;"><g transform="translate(71.616388, 229.991336)"><path style="stroke:none" d="M 3.125 -1.90625 L 6.75 -1.90625 L 6.75 0 L 1.078125 0 L 1.078125 -9.4375 L 3.125 -9.4375 Z M 3.125 -1.90625 "/></g></g><g style="fill:#000e4d;fill-opacity:1;"><g transform="translate(89.449414, 229.991336)"><path style="stroke:none" d="M 5.5625 0.203125 C 4.84375 0.203125 4.175781 0.078125 3.5625 -0.171875 C 2.945312 -0.421875 2.410156 -0.765625 1.953125 -1.203125 C 1.503906 -1.648438 1.15625 -2.171875 0.90625 -2.765625 C 0.65625 -3.367188 0.53125 -4.019531 0.53125 -4.71875 C 0.53125 -5.414062 0.65625 -6.0625 0.90625 -6.65625 C 1.15625 -7.257812 1.503906 -7.785156 1.953125 -8.234375 C 2.410156 -8.679688 2.945312 -9.023438 3.5625 -9.265625 C 4.175781 -9.515625 4.84375 -9.640625 5.5625 -9.640625 C 6.28125 -9.640625 6.941406 -9.515625 7.546875 -9.265625 C 8.160156 -9.023438 8.691406 -8.679688 9.140625 -8.234375 C 9.585938 -7.785156 9.9375 -7.257812 10.1875 -6.65625 C 10.445312 -6.0625 10.578125 -5.414062 10.578125 -4.71875 C 10.578125 -4.019531 10.445312 -3.367188 10.1875 -2.765625 C 9.9375 -2.171875 9.585938 -1.648438 9.140625 -1.203125 C 8.691406 -0.765625 8.160156 -0.421875 7.546875 -0.171875 C 6.941406 0.078125 6.28125 0.203125 5.5625 0.203125 Z M 5.5625 -1.71875 C 6.125 -1.71875 6.625 -1.847656 7.0625 -2.109375 C 7.507812 -2.378906 7.863281 -2.738281 8.125 -3.1875 C 8.382812 -3.632812 8.515625 -4.144531 8.515625 -4.71875 C 8.515625 -5.28125 8.382812 -5.789062 8.125 -6.25 C 7.863281 -6.707031 7.507812 -7.066406 7.0625 -7.328125 C 6.625 -7.585938 6.125 -7.71875 5.5625 -7.71875 C 5 -7.71875 4.492188 -7.585938 4.046875 -7.328125 C 3.597656 -7.066406 3.242188 -6.707031 2.984375 -6.25 C 2.722656 -5.789062 2.59375 -5.28125 2.59375 -4.71875 C 2.59375 -4.15625 2.722656 -3.644531 2.984375 -3.1875 C 3.242188 -2.738281 3.597656 -2.378906 4.046875 -2.109375 C 4.492188 -1.847656 5 -1.71875 5.5625 -1.71875 Z M 5.5625 -1.71875 "/></g></g><g style="fill:#000e4d;fill-opacity:1;"><g transform="translate(111.33887, 229.991336)"><path style="stroke:none" d="M 11.703125 -9.4375 L 13.828125 -9.4375 L 10.9375 0 L 9.109375 0 L 7 -5.28125 L 4.96875 0 L 3.140625 0 L 0.15625 -9.4375 L 2.328125 -9.4375 L 4.1875 -3.171875 L 6.65625 -9.34375 L 7.34375 -9.34375 L 9.890625 -3.171875 Z M 11.703125 -9.4375 "/></g></g><g clip-rule="nonzero" clip-path="url(#f2c34efe61)"><path style=" stroke:none;fill-rule:nonzero;fill:#38b6ff;fill-opacity:1;" d="M 30.789062 46.6875 C 64.90625 -48.179688 171.550781 22.492188 118.6875 95.539062 C 119.417969 97.484375 119.78125 99.617188 119.78125 101.777344 C 119.78125 111.851562 111.65625 119.976562 101.582031 119.976562 C 91.507812 119.976562 83.382812 111.851562 83.382812 101.777344 C 83.382812 91.703125 91.507812 83.578125 101.582031 83.578125 C 102.617188 83.578125 103.621094 83.605469 104.59375 83.789062 C 134.511719 34.363281 78.722656 -29.339844 38.03125 43.25 C 35.566406 44.253906 33.132812 45.378906 30.789062 46.6875 Z M 30.789062 46.6875 "/></g><path style=" stroke:none;fill-rule:nonzero;fill:#5271ff;fill-opacity:1;" d="M 136.976562 55.667969 C 202.078125 132.636719 87.519531 189.703125 50.695312 107.40625 C 48.652344 107.042969 46.675781 106.3125 44.789062 105.246094 C 36.085938 100.195312 33.101562 89.085938 38.09375 80.378906 C 43.144531 71.675781 54.316406 68.695312 62.957031 73.683594 C 71.664062 78.707031 74.644531 89.847656 69.65625 98.550781 C 69.167969 99.464844 68.558594 100.253906 67.949219 101.046875 C 95.796875 151.691406 178.886719 135.226562 136.339844 63.671875 C 136.703125 60.992188 136.917969 58.34375 136.976562 55.667969 Z M 136.976562 55.667969 "/><path style=" stroke:none;fill-rule:nonzero;fill:#71ddff;fill-opacity:1;" d="M 76.078125 143.167969 C -23.082031 161.035156 -15.230469 33.328125 74.433594 42.578125 C 75.800781 40.996094 77.355469 39.660156 79.273438 38.5625 C 87.976562 33.511719 99.148438 36.492188 104.136719 45.199219 C 109.191406 53.902344 106.207031 65.070312 97.503906 70.0625 C 88.796875 75.117188 77.628906 72.101562 72.636719 63.429688 C 72.089844 62.515625 71.695312 61.632812 71.328125 60.6875 C 13.53125 59.472656 -13.738281 139.699219 69.472656 138.605469 C 71.601562 140.246094 73.761719 141.769531 76.078125 143.167969 Z M 76.078125 143.167969 "/></g></g></g></svg>