<svg xmlns="http://www.w3.org/2000/svg" xmlns:xlink="http://www.w3.org/1999/xlink" width="500" zoomAndPan="magnify" viewBox="0 0 375 374.999991" height="500" preserveAspectRatio="xMidYMid meet" version="1.2"><g id="2ee28d33fb"><path style=" stroke:none;fill-rule:nonzero;fill:#38b6f0;fill-opacity:1;" d="M 105.199219 149.558594 C 158.96875 0.046875 327.042969 111.425781 243.726562 226.542969 C 244.875 229.613281 245.453125 232.972656 245.453125 236.378906 C 245.453125 252.253906 232.644531 265.0625 216.769531 265.0625 C 200.890625 265.0625 188.085938 252.253906 188.085938 236.378906 C 188.085938 220.5 200.890625 207.695312 216.769531 207.695312 C 218.398438 207.695312 219.980469 207.742188 221.515625 208.03125 C 268.667969 130.132812 180.746094 29.738281 116.613281 144.136719 C 112.730469 145.722656 108.890625 147.496094 105.199219 149.558594 Z M 105.199219 149.558594 "/><path style=" stroke:none;fill-rule:nonzero;fill:#5271ff;fill-opacity:1;" d="M 272.554688 163.707031 C 375.152344 285.015625 194.609375 374.953125 136.566406 245.25 C 133.355469 244.675781 130.238281 243.523438 127.261719 241.847656 C 113.542969 233.882812 108.84375 216.375 116.710938 202.65625 C 124.671875 188.9375 142.277344 184.238281 155.898438 192.105469 C 169.617188 200.019531 174.316406 217.574219 166.453125 231.292969 C 165.683594 232.730469 164.722656 233.980469 163.765625 235.226562 C 207.65625 315.042969 338.601562 289.09375 271.546875 176.324219 C 272.121094 172.101562 272.457031 167.929688 272.554688 163.707031 Z M 272.554688 163.707031 "/><path style=" stroke:none;fill-rule:nonzero;fill:#71ddff;fill-opacity:1;" d="M 176.570312 301.613281 C 20.296875 329.769531 32.671875 128.5 173.980469 143.082031 C 176.140625 140.589844 178.585938 138.476562 181.609375 136.75 C 195.328125 128.789062 212.929688 133.488281 220.796875 147.207031 C 228.757812 160.925781 224.058594 178.53125 210.339844 186.398438 C 196.621094 194.359375 179.019531 189.609375 171.152344 175.941406 C 170.289062 174.5 169.664062 173.109375 169.089844 171.625 C 78 169.703125 35.023438 296.144531 166.164062 294.417969 C 169.519531 297.007812 172.925781 299.40625 176.570312 301.613281 Z M 176.570312 301.613281 "/><path style=" stroke:none;fill-rule:nonzero;fill:#38b6f0;fill-opacity:1;" d="M 105.199219 149.558594 C 158.96875 0.046875 327.042969 111.425781 243.726562 226.542969 C 244.875 229.613281 245.453125 232.972656 245.453125 236.378906 C 245.453125 252.253906 232.644531 265.0625 216.769531 265.0625 C 200.890625 265.0625 188.085938 252.253906 188.085938 236.378906 C 188.085938 220.5 200.890625 207.695312 216.769531 207.695312 C 218.398438 207.695312 219.980469 207.742188 221.515625 208.03125 C 268.667969 130.132812 180.746094 29.738281 116.613281 144.136719 C 112.730469 145.722656 108.890625 147.496094 105.199219 149.558594 Z M 105.199219 149.558594 "/><path style=" stroke:none;fill-rule:nonzero;fill:#5271ff;fill-opacity:1;" d="M 272.554688 163.707031 C 375.152344 285.015625 194.609375 374.953125 136.566406 245.25 C 133.355469 244.675781 130.238281 243.523438 127.261719 241.847656 C 113.542969 233.882812 108.84375 216.375 116.710938 202.65625 C 124.671875 188.9375 142.277344 184.238281 155.898438 192.105469 C 169.617188 200.019531 174.316406 217.574219 166.453125 231.292969 C 165.683594 232.730469 164.722656 233.980469 163.765625 235.226562 C 207.65625 315.042969 338.601562 289.09375 271.546875 176.324219 C 272.121094 172.101562 272.457031 167.929688 272.554688 163.707031 Z M 272.554688 163.707031 "/><path style=" stroke:none;fill-rule:nonzero;fill:#71ddff;fill-opacity:1;" d="M 176.570312 301.613281 C 20.296875 329.769531 32.671875 128.5 173.980469 143.082031 C 176.140625 140.589844 178.585938 138.476562 181.609375 136.75 C 195.328125 128.789062 212.929688 133.488281 220.796875 147.207031 C 228.757812 160.925781 224.058594 178.53125 210.339844 186.398438 C 196.621094 194.359375 179.019531 189.609375 171.152344 175.941406 C 170.289062 174.5 169.664062 173.109375 169.089844 171.625 C 78 169.703125 35.023438 296.144531 166.164062 294.417969 C 169.519531 297.007812 172.925781 299.40625 176.570312 301.613281 Z M 176.570312 301.613281 "/></g></svg>